<?xml version="1.0" encoding="utf-8"?>
<!-- Generator: Adobe Illustrator 22.0.1, SVG Export Plug-In . SVG Version: 6.00 Build 0)  -->
<svg version="1.1" id="Layer_1" xmlns="http://www.w3.org/2000/svg" xmlns:xlink="http://www.w3.org/1999/xlink" x="0px" y="0px"
	 viewBox="0 0 50 50" style="enable-background:new 0 0 50 50;" xml:space="preserve">
<style type="text/css">
	.st0{opacity:0.5;fill:#FFFFFF;}
</style>
<path class="st0" d="M25,0C11.2,0,0,11.2,0,25s11.2,25,25,25s25-11.2,25-25S38.8,0,25,0z M21.4,34.3H9.6V15.9h4.6v14.5h7.2V34.3z
	 M40.4,34.3h-3.6v-1.7c-0.5,0.4-0.9,0.8-1.1,0.9c-1.7,1.2-3.6,1.2-4.3,1.2c-0.7,0-2-0.1-3.6-0.8c-3.3-1.6-4.8-5.3-4.8-8.9
	c0-1.4,0.3-6.3,4.5-8.7c0.8-0.4,2.3-1.2,4.5-1.2c3.4,0,5.6,1.6,6.5,2.5c0.7,0.6,1.1,1.1,1.6,1.8l-3.5,2.1c-0.1-0.1-0.6-1-1.2-1.5
	C34.4,19.1,33,19,32.5,19c-0.3,0-1.6,0-2.5,0.7c-1.1,0.7-2.3,2.3-2.3,5.3c0,0.4,0,3,1.3,4.5c0.5,0.6,1.1,0.9,1.3,1
	c0.3,0.2,1.2,0.5,2.2,0.5c0.3,0,0.9,0,1.6-0.2c0.4-0.1,1.5-0.6,2-1.7c0.3-0.6,0.4-1.4,0.4-1.5h-4.1v-3.5h8V34.3z"/>
</svg>
